:FULLY-SPECIFIED
:FORCE-ALL-JOINTS-BE-3DOF
:DEGREES
162
root 8.51834 16.4254 -14.6425 6.69388 5.82675 0.660126
lfemur -14.6713 4.37696 -21.7718
ltibia 37.9295 -0 0
lfoot -13.7186 7.75739 0.0623947
ltoes -3.81762 0 0
rfemur -26.0908 8.03169 19.4775
rtibia 27.5316 -0 0
rfoot -21.3053 -4.03155 0.152705
rtoes -16.9689 0 0
lowerback -5.6021 -0.579644 -2.11922
upperback -1.73375 -0.687056 2.86835
thorax 1.53606 -0.351874 3.984
lowerneck -15.4429 -6.43583 -14.9266
upperneck 15.908 -8.11735 14.318
head 8.79058 -3.43797 6.40536
lclavicle -4.73511e-14 -6.53057e-15 5.32693e-30
lhumerus -42.062 -16.5594 96.915
lradius 35.8003 -0 0
lwrist 15.0304 0 0
lhand -13.8866 -24.502 0.00212024
lfingers 7.12502 -0 0
lthumb 12.2378 5.10788 -0.000457936
rclavicle -4.73511e-14 -6.53057e-15 5.32693e-30
rhumerus -42.7341 9.03075 -80.0123
rradius 40.9175 -0 0
rwrist -20.7156 0 0
rhand -30.8702 -24.2916 0.00656789
rfingers 7.12502 -0 0
rthumb -4.15785 -54.23 0.0062885
163
root 8.49983 16.4357 -14.5005 6.73188 5.81878 0.536736
lfemur -15.4884 4.50892 -21.6424
ltibia 38.9021 -0 0
lfoot -13.6754 7.95046 0.0610846
ltoes -3.77599 0 0
rfemur -25.6939 7.88167 19.8412
rtibia 27.5707 -0 0
rfoot -21.2198 -3.793 0.149497
rtoes -16.8424 0 0
lowerback -5.53055 -0.500705 -2.00446
upperback -1.74712 -0.588981 2.88822
thorax 1.47047 -0.301258 3.94944
lowerneck -15.3374 -6.46206 -14.9702
upperneck 15.7649 -8.16138 14.4033
head 8.73538 -3.45765 6.43387
lclavicle -4.60199e-14 -7.06501e-15 5.21517e-30
lhumerus -42.385 -16.3068 96.9047
lradius 35.6636 -0 0
lwrist 15.1347 0 0
lhand -13.9621 -24.5058 0.00207575
lfingers 7.12502 -0 0
lthumb 12.165 5.10872 -0.000448328
rclavicle -4.60199e-14 -7.06501e-15 5.21517e-30
rhumerus -42.6228 9.0717 -79.9277
rradius 41.1004 -0 0
rwrist -20.7586 0 0
rhand -30.8905 -24.3348 0.00643009
rfingers 7.12502 -0 0
rthumb -4.17743 -54.2729 0.00615657
164
root 8.48132 16.446 -14.3585 6.7699 5.81089 0.413342
lfemur -16.3053 4.64271 -21.5148
ltibia 39.8747 -0 0
lfoot -13.6323 8.14352 0.0596291
ltoes -3.73436 0 0
rfemur -25.2981 7.72917 20.2037
rtibia 27.6099 -0 0
rfoot -21.1342 -3.55446 0.145933
rtoes -16.7159 0 0
lowerback -5.45883 -0.421909 -1.88961
upperback -1.76047 -0.490901 2.90807
thorax 1.40485 -0.250682 3.91482
lowerneck -15.2319 -6.48821 -15.0138
upperneck 15.6216 -8.2052 14.4887
head 8.68018 -3.4773 6.4624
lclavicle -4.46887e-14 -7.59945e-15 5.091e-30
lhumerus -42.7077 -16.0543 96.893
lradius 35.5268 -0 0
lwrist 15.239 0 0
lhand -14.0376 -24.5095 0.00202633
lfingers 7.12502 -0 0
lthumb 12.0922 5.10956 -0.000437653
rclavicle -4.46887e-14 -7.59945e-15 5.091e-30
rhumerus -42.5114 9.11249 -79.8429
rradius 41.2832 -0 0
rwrist -20.8016 0 0
rhand -30.9108 -24.3781 0.00627699
rfingers 7.12502 -0 0
rthumb -4.19702 -54.3157 0.00600997
165
root 8.4628 16.4563 -14.2165 6.80794 5.80308 0.289945
lfemur -17.1221 4.7783 -21.3892
ltibia 40.8472 -0 0
lfoot -13.5891 8.33659 0.058028
ltoes -3.69272 0 0
rfemur -24.9035 7.57419 20.565
rtibia 27.649 -0 0
rfoot -21.0487 -3.31592 0.142012
rtoes -16.5894 0 0
lowerback -5.38696 -0.343258 -1.77466
upperback -1.77378 -0.392817 2.9279
thorax 1.3392 -0.200145 3.88014
lowerneck -15.1264 -6.51428 -15.0575
upperneck 15.4783 -8.2488 14.5742
head 8.62497 -3.49693 6.49094
lclavicle -4.33575e-14 -8.13388e-15 4.95441e-30
lhumerus -43.03 -15.8019 96.8797
lradius 35.39 -0 0
lwrist 15.3434 0 0
lhand -14.1131 -24.5133 0.00197195
lfingers 7.12502 -0 0
lthumb 12.0194 5.1104 -0.00042591
rclavicle -4.33575e-14 -8.13388e-15 4.95441e-30
rhumerus -42.3999 9.15312 -79.7581
rradius 41.4661 -0 0
rwrist -20.8447 0 0
rhand -30.9311 -24.4213 0.00610857
rfingers 7.12502 -0 0
rthumb -4.2166 -54.3586 0.00584872
166
root 8.44429 16.4665 -14.0745 6.84599 5.79535 0.166544
lfemur -17.9387 4.91566 -21.2654
ltibia 41.8198 -0 0
lfoot -13.5459 8.52966 0.0562814
ltoes -3.65109 0 0
rfemur -24.51 7.41676 20.9251
rtibia 27.6882 -0 0
rfoot -20.9631 -3.07738 0.137736
rtoes -16.463 0 0
lowerback -5.31494 -0.264751 -1.65961
upperback -1.78706 -0.294728 2.94771
thorax 1.27352 -0.149648 3.84541
lowerneck -15.0209 -6.54027 -15.1012
upperneck 15.3349 -8.2922 14.6599
head 8.56974 -3.51653 6.51951
lclavicle -4.20263e-14 -8.66832e-15 4.80541e-30
lhumerus -43.3519 -15.5496 96.8651
lradius 35.2532 -0 0
lwrist 15.4477 0 0
lhand -14.1886 -24.517 0.00191264
lfingers 7.12502 -0 0
lthumb 11.9466 5.11124 -0.000413099
rclavicle -4.20263e-14 -8.66832e-15 4.80541e-30
rhumerus -42.2884 9.19358 -79.6732
rradius 41.649 -0 0
rwrist -20.8877 0 0
rhand -30.9514 -24.4646 0.00592485
rfingers 7.12502 -0 0
rthumb -4.23619 -54.4015 0.00567281
167
root 8.42578 16.4768 -13.9325 6.88406 5.78771 0.0431396
lfemur -18.7552 5.05476 -21.1437
ltibia 42.7923 -0 0
lfoot -13.5027 8.72272 0.0543894
ltoes -3.60945 0 0
rfemur -24.1177 7.25688 21.2839
rtibia 27.7274 -0 0
rfoot -20.8776 -2.83886 0.133103
rtoes -16.3365 0 0
lowerback -5.24275 -0.186389 -1.54446
upperback -1.8003 -0.196634 2.96749
thorax 1.20781 -0.0991909 3.81061
lowerneck -14.9154 -6.56618 -15.145
upperneck 15.1914 -8.33538 14.7457
head 8.51451 -3.5361 6.5481
lclavicle -4.06951e-14 -9.20276e-15 4.64399e-30
lhumerus -43.6735 -15.2973 96.8489
lradius 35.1164 -0 0
lwrist 15.5521 0 0
lhand -14.2642 -24.5208 0.00184839
lfingers 7.12502 -0 0
lthumb 11.8738 5.11208 -0.000399221
rclavicle -4.06951e-14 -9.20276e-15 4.64399e-30
rhumerus -42.1768 9.23388 -79.5882
rradius 41.8318 -0 0
rwrist -20.9308 0 0
rhand -30.9717 -24.5078 0.00572581
rfingers 7.12502 -0 0
rthumb -4.25577 -54.4444 0.00548225
168
root 8.40726 16.4871 -13.7905 6.92215 5.78014 -0.0802681
lfemur -19.5716 5.19558 -21.0239
ltibia 43.7649 -0 0
lfoot -13.4596 8.91578 0.052352
ltoes -3.56782 0 0
rfemur -23.7265 7.09457 21.6416
rtibia 27.7665 -0 0
rfoot -20.7922 -2.60034 0.128115
rtoes -16.21 0 0
lowerback -5.17041 -0.108172 -1.42922
upperback -1.81351 -0.0985362 2.98725
thorax 1.14206 -0.0487738 3.77576
lowerneck -14.8098 -6.59201 -15.1889
upperneck 15.0478 -8.37835 14.8316
head 8.45926 -3.55565 6.57671
lclavicle -3.93639e-14 -9.7372e-15 4.47015e-30
lhumerus -43.9949 -15.0452 96.8314
lradius 34.9796 -0 0
lwrist 15.6564 0 0
lhand -14.3397 -24.5245 0.00177919
lfingers 7.12502 -0 0
lthumb 11.801 5.11292 -0.000384275
rclavicle -3.93639e-14 -9.7372e-15 4.47015e-30
rhumerus -42.0651 9.27402 -79.5031
rradius 42.0147 -0 0
rwrist -20.9738 0 0
rhand -30.9919 -24.5511 0.00551147
rfingers 7.12502 -0 0
rthumb -4.27536 -54.4873 0.00527702
169
root 8.38875 16.4974 -13.6485 6.96025 5.77266 -0.203679
lfemur -20.3879 5.33808 -20.9061
ltibia 44.7374 -0 0
lfoot -13.4164 9.10885 0.0501692
ltoes -3.52619 0 0
rfemur -23.3365 6.92985 21.9979
rtibia 27.8057 -0 0
rfoot -20.7067 -2.36182 0.122771
rtoes -16.0835 0 0
lowerback -5.09791 -0.0301003 -1.31387
upperback -1.82668 -0.000433585 3.00699
thorax 1.07629 0.00160332 3.74085
lowerneck -14.7042 -6.61776 -15.2328
upperneck 14.9041 -8.42111 14.9176
head 8.404 -3.57517 6.60533
lclavicle -3.80327e-14 -1.02716e-14 4.28389e-30
lhumerus -44.3159 -14.7931 96.8123
lradius 34.8429 -0 0
lwrist 15.7608 0 0
lhand -14.4152 -24.5283 0.00170505
lfingers 7.12502 -0 0
lthumb 11.7282 5.11376 -0.000368262
rclavicle -3.80327e-14 -1.02716e-14 4.28389e-30
rhumerus -41.9534 9.31399 -79.4179
rradius 42.1976 -0 0
rwrist -21.0169 0 0
rhand -31.0122 -24.5943 0.00528181
rfingers 7.12502 -0 0
rthumb -4.29494 -54.5302 0.00505714
